HIERARCHY
ROOT Hips
{
	OFFSET 0.00000 0.00000 0.00000
	CHANNELS 6 Xposition Yposition Zposition Zrotation Yrotation Xrotation 
	JOINT LHipJoint
	{
		OFFSET 0 0 0
		CHANNELS 3 Zrotation Yrotation Xrotation
		JOINT LeftUpLeg
		{
			OFFSET 1.26600 -1.82114 0.91038
			CHANNELS 3 Zrotation Yrotation Xrotation
			JOINT LeftLeg
			{
				OFFSET 2.50076 -6.87080 0.00000
				CHANNELS 3 Zrotation Yrotation Xrotation
				JOINT LeftFoot
				{
					OFFSET 2.57364 -7.07102 0.00000
					CHANNELS 3 Zrotation Yrotation Xrotation
					JOINT LeftToeBase
					{
						OFFSET 0.13572 -0.37290 1.97004
						CHANNELS 3 Zrotation Yrotation Xrotation
						End Site
						{
							OFFSET 0.00000 -0.00000 1.01383
						}
					}
				}
			}
		}
	}
	JOINT RHipJoint
	{
		OFFSET 0 0 0
		CHANNELS 3 Zrotation Yrotation Xrotation
		JOINT RightUpLeg
		{
			OFFSET -1.20803 -1.82114 0.91038
			CHANNELS 3 Zrotation Yrotation Xrotation
			JOINT RightLeg
			{
				OFFSET -2.54916 -7.00377 0.00000
				CHANNELS 3 Zrotation Yrotation Xrotation
				JOINT RightFoot
				{
					OFFSET -2.56374 -7.04382 0.00000
					CHANNELS 3 Zrotation Yrotation Xrotation
					JOINT RightToeBase
					{
						OFFSET -0.23520 -0.64621 2.09921
						CHANNELS 3 Zrotation Yrotation Xrotation
						End Site
						{
							OFFSET -0.00000 -0.00000 1.10065
						}
					}
				}
			}
		}
	}
	JOINT LowerBack
	{
		OFFSET 0 0 0
		CHANNELS 3 Zrotation Yrotation Xrotation
		JOINT Spine
		{
			OFFSET 0.05492 2.10797 -0.12074
			CHANNELS 3 Zrotation Yrotation Xrotation
			JOINT Spine1
			{
				OFFSET 0.04577 2.11592 -0.04483
				CHANNELS 3 Zrotation Yrotation Xrotation
				JOINT Neck
				{
					OFFSET 0 0 0
					CHANNELS 3 Zrotation Yrotation Xrotation
					JOINT Neck1
					{
						OFFSET -0.10759 1.80167 0.15770
						CHANNELS 3 Zrotation Yrotation Xrotation
						JOINT Head
						{
							OFFSET 0.09237 1.77509 -0.40848
							CHANNELS 3 Zrotation Yrotation Xrotation
							End Site
							{
								OFFSET 0.03805 1.84093 -0.15754
							}
						}
					}
				}
				JOINT LeftShoulder
				{
					OFFSET 0 0 0
					CHANNELS 3 Zrotation Yrotation Xrotation
					JOINT LeftArm
					{
						OFFSET 3.42372 1.09575 -0.28209
						CHANNELS 3 Zrotation Yrotation Xrotation
						JOINT LeftForeArm
						{
							OFFSET 4.95681 -0.00000 0.00000
							CHANNELS 3 Zrotation Yrotation Xrotation
							JOINT LeftHand
							{
								OFFSET 3.40915 -0.00000 0.00000
								CHANNELS 3 Zrotation Yrotation Xrotation
								JOINT LeftFingerBase
								{
									OFFSET 0 0 0
									CHANNELS 3 Zrotation Yrotation Xrotation
									JOINT LeftHandIndex1
									{
										OFFSET 0.61640 -0.00000 0.00000
										CHANNELS 3 Zrotation Yrotation Xrotation
										End Site
										{
											OFFSET 0.49696 -0.00000 0.00000
										}
									}
								}
								JOINT LThumb
								{
									OFFSET 0 0 0
									CHANNELS 3 Zrotation Yrotation Xrotation
									End Site
									{
										OFFSET 0.50455 -0.00000 0.50455
									}
								}
							}
						}
					}
				}
				JOINT RightShoulder
				{
					OFFSET 0 0 0
					CHANNELS 3 Zrotation Yrotation Xrotation
					JOINT RightArm
					{
						OFFSET -3.24731 1.15872 -0.32221
						CHANNELS 3 Zrotation Yrotation Xrotation
						JOINT RightForeArm
						{
							OFFSET -5.35200 -0.00000 0.00000
							CHANNELS 3 Zrotation Yrotation Xrotation
							JOINT RightHand
							{
								OFFSET -3.43721 -0.00000 -0.00000
								CHANNELS 3 Zrotation Yrotation Xrotation
								JOINT RightFingerBase
								{
									OFFSET 0 0 0
									CHANNELS 3 Zrotation Yrotation Xrotation
									JOINT RightHandIndex1
									{
										OFFSET -0.72009 -0.00000 0.00000
										CHANNELS 3 Zrotation Yrotation Xrotation
										End Site
										{
											OFFSET -0.58056 -0.00000 0.00000
										}
									}
								}
								JOINT RThumb
								{
									OFFSET 0 0 0
									CHANNELS 3 Zrotation Yrotation Xrotation
									End Site
									{
										OFFSET -0.58942 -0.00000 0.58942
									}
								}
							}
						}
					}
				}
			}
		}
	}
}
MOTION
Frames: 15
Frame Time: .0083333
-12.5921 17.5437 8.5325 0 0 0 0 0 0 -21 0 0 0 0 0 0 0 0 0 0 0 0 0 0 21 0 0 0 0 0 0 0 0 0 0 0 0 0 0 0 0 0 0 0 0 0 0 -16 0 0 21 0 0 11 0 0 0 -8 0 0 0 0 0 0 0 0 0 0 0 0 0 0 0 0 0 0 0 0 8 0 0 0 0 0 0 0 0 0 0 0 0 0 0 0 0 0
-12.5921 17.5437 8.5325 -3.6837 -2.4850 3.9808 0.0000 0.0000 0.0000 -15.0539 -1.8372 -11.4639 2.4481 9.7429 28.1480 0.7919 -10.1834 -16.3649 0.0923 -1.9599 -5.3949 0.0000 0.0000 0.0000 25.9558 2.7190 -10.9997 -2.8224 -10.4019 30.2882 -1.3621 5.1129 -20.9768 -0.0047 -0.4427 1.2166 2.4414 0.7669 1.9570 3.0780 0.9142 4.8055 1.8214 0.4794 3.8442 -9.6125 1.0373 -7.9112 3.1523 2.9528 45.1678 3.7426 0.0019 18.0559 -0.0000 -0.0000 0.0000 -77.6879 23.0147 49.4622 86.5956 -59.9562 -57.0521 -0.0000 0.0000 -21.9860 9.0217 19.9621 3.1027 -7.1250 0.0000 -0.0000 -18.9405 49.2078 -2.0313 -0.0000 -0.0000 0.0000 71.1273 -25.6295 44.4024 -99.4728 59.6582 -68.1943 0.0000 -0.0000 -27.3913 -13.6327 11.1110 -2.6760 7.1250 -0.0000 -0.0000 9.4680 -18.6410 6.0277
-12.5892 17.5541 8.5384 -3.4581 -2.4230 3.8612 0.0000 0.0000 0.0000 -15.3246 -1.6376 -11.4684 2.4828 9.8065 28.3524 0.8156 -10.2024 -16.5831 0.1933 -2.8311 -7.8090 0.0000 0.0000 0.0000 25.6949 2.4624 -10.8156 -2.7760 -10.3233 30.0301 -1.3478 5.1116 -20.8628 -0.0020 -0.2863 0.7865 2.2517 0.7338 1.9956 3.0015 0.8736 4.8432 1.8477 0.4540 3.8598 -9.2081 0.9969 -7.8467 2.6924 2.9599 44.9827 3.4418 0.0232 17.9465 -0.0000 -0.0000 0.0000 -77.6708 22.9980 49.6090 86.5693 -59.9555 -57.0294 -0.0000 0.0000 -21.8458 9.0175 19.6700 3.0577 -7.1250 0.0000 -0.0000 -18.8184 48.9297 -1.8848 -0.0000 -0.0000 0.0000 70.9792 -25.4552 44.8034 -99.8444 59.6306 -68.5149 0.0000 -0.0000 -26.9626 -13.7536 12.0073 -2.9150 7.1250 -0.0000 -0.0000 9.3652 -17.7263 6.1522
-12.5840 17.5631 8.5443 -3.3852 -2.3578 3.8318 0.0000 0.0000 0.0000 -15.4200 -1.5167 -11.4904 2.5067 9.8500 28.4924 0.8062 -10.3919 -16.5389 0.1998 -2.8785 -7.9407 0.0000 0.0000 0.0000 25.5660 2.1797 -10.8020 -2.7530 -10.2841 29.9017 -1.3512 5.3826 -20.8650 -0.0087 -0.6015 1.6528 2.2734 0.6968 1.9479 2.9600 0.8239 4.8300 1.7925 0.4309 3.8745 -9.0096 0.9867 -7.8225 2.4360 2.9916 44.8715 3.2841 0.0417 17.8815 -0.0000 0.0000 0.0000 -77.6774 22.9302 49.7660 86.3387 -59.9493 -56.8298 -0.0000 0.0000 -21.8478 8.8548 19.6445 2.9980 -7.1250 0.0000 -0.0000 -18.9580 48.8819 -1.8768 -0.0000 0.0000 0.0000 70.8145 -25.3916 45.2214 -100.3286 59.5930 -68.9326 0.0000 -0.0000 -26.8920 -13.4586 12.5648 -2.9802 7.1250 -0.0000 -0.0000 9.5603 -17.1816 6.3998
-12.5818 17.5609 8.5454 -3.5850 -2.3485 3.9255 0.0000 0.0000 0.0000 -15.1638 -1.4470 -11.6691 2.5273 9.8873 28.6125 0.7945 -10.6779 -16.4985 0.1601 -2.5778 -7.1055 0.0000 0.0000 0.0000 25.7722 2.1507 -10.8677 -2.7351 -10.2534 29.8014 -1.3363 5.4200 -20.7428 -0.0203 -0.9208 2.5309 2.5255 0.7017 1.8873 3.0060 0.8287 4.7370 1.6985 0.4412 3.8155 -9.0236 0.9409 -7.8230 2.4034 2.9311 44.7252 3.2557 0.0176 17.7981 -0.0000 -0.0000 0.0000 -77.6374 22.8148 50.0216 85.9287 -59.9373 -56.4749 -0.0000 0.0000 -22.0212 9.0083 19.4430 3.0207 -7.1250 0.0000 -0.0000 -18.7307 48.7128 -1.7724 -0.0000 -0.0000 0.0000 70.6628 -25.3648 45.6330 -100.6286 59.5688 -69.1913 0.0000 -0.0000 -26.9399 -13.1057 12.7125 -2.9328 7.1250 -0.0000 -0.0000 9.8013 -17.0560 6.5933
-12.5819 17.5541 8.5448 -3.6540 -2.3083 3.9009 0.0000 0.0000 0.0000 -15.0466 -1.4668 -11.6557 2.5417 9.9133 28.6964 0.7898 -10.9125 -16.5120 0.1164 -2.2001 -6.0589 0.0000 0.0000 0.0000 25.8587 2.1282 -10.8355 -2.7264 -10.2384 29.7522 -1.3219 5.3478 -20.6322 -0.0232 -0.9829 2.7019 2.5980 0.6865 1.9208 3.0232 0.8110 4.6909 1.6741 0.4342 3.7497 -9.1544 0.8802 -7.9041 2.4965 2.8401 44.6955 3.3098 -0.0293 17.8051 -0.0000 -0.0000 0.0000 -77.6242 22.7597 50.1750 85.6997 -59.9300 -56.2767 -0.0000 0.0000 -22.0653 9.2100 19.1547 3.0454 -7.1250 0.0000 -0.0000 -18.4242 48.4670 -1.6268 -0.0000 -0.0000 0.0000 70.5630 -25.3596 46.0154 -101.0707 59.5318 -69.5724 0.0000 -0.0000 -26.7849 -13.1970 12.9683 -3.0123 7.1250 -0.0000 -0.0000 9.7343 -16.7920 6.6038
-12.5846 17.5467 8.5445 -3.7622 -2.1712 3.8633 0.0000 0.0000 0.0000 -14.8916 -1.6026 -11.6043 2.5482 9.9251 28.7344 0.7785 -11.0770 -16.4524 0.0848 -1.8782 -5.1692 0.0000 0.0000 0.0000 26.0154 2.1154 -10.7781 -2.7277 -10.2406 29.7596 -1.3355 5.1830 -20.7569 -0.0102 -0.6527 1.7936 2.6368 0.6202 1.8771 3.0685 0.7181 4.7100 1.6990 0.3886 3.7955 -9.3580 0.8279 -8.1007 2.7005 2.7491 44.6980 3.4334 -0.0773 17.8574 -0.0000 -0.0000 0.0000 -77.7208 22.7182 50.0800 85.6001 -59.9267 -56.1905 -0.0000 0.0000 -22.0424 8.7834 19.1133 2.8963 -7.1250 0.0000 -0.0000 -18.7997 48.3673 -1.6146 -0.0000 -0.0000 0.0000 70.4624 -25.1823 46.2924 -101.3711 59.5057 -69.8313 0.0000 -0.0000 -26.5882 -12.7607 13.3429 -2.9919 7.1250 -0.0000 -0.0000 10.0279 -16.4443 6.8863
-12.5870 17.5435 8.5445 -3.7975 -2.0952 3.8717 0.0000 0.0000 0.0000 -14.8274 -1.7248 -11.5576 2.5431 9.9158 28.7046 0.7751 -11.1439 -16.4396 0.0779 -1.8007 -4.9551 0.0000 0.0000 0.0000 26.0845 2.1518 -10.8037 -2.7398 -10.2614 29.8275 -1.3507 5.0051 -20.8961 -0.0016 -0.2559 0.7031 2.6099 0.5979 1.8196 3.0712 0.6860 4.7062 1.7172 0.3717 3.8240 -9.4811 0.7563 -8.2122 2.9526 2.5712 44.6023 3.5452 -0.1350 17.8328 -0.0000 0.0000 0.0000 -77.7964 22.6487 49.9410 85.2480 -59.9145 -55.8858 -0.0000 0.0000 -22.1462 8.1434 18.6368 2.6182 -7.1250 0.0000 -0.0000 -19.1887 47.8262 -1.3862 -0.0000 0.0000 0.0000 70.4484 -24.9447 46.3902 -101.2587 59.5156 -69.7344 0.0000 -0.0000 -26.3620 -11.5547 13.2017 -2.6733 7.1250 -0.0000 -0.0000 10.8565 -16.6657 7.4226
-12.5903 17.5397 8.5432 -3.8041 -2.1950 3.8301 0.0000 0.0000 0.0000 -14.7900 -1.6801 -11.4014 2.5166 9.8681 28.5506 0.7846 -11.2190 -16.5421 0.0663 -1.6607 -4.5689 0.0000 0.0000 0.0000 26.1143 2.3447 -10.7934 -2.7692 -10.3118 29.9923 -1.3618 4.8835 -20.9984 -0.0007 -0.1678 0.4611 2.5333 0.6499 1.9561 3.0714 0.7652 4.6331 1.7580 0.4077 3.6683 -9.5949 0.6828 -8.2626 3.2094 2.3824 44.5797 3.6580 -0.1976 17.8395 0.0000 0.0000 0.0000 -77.8579 22.7486 49.8526 84.9397 -59.9030 -55.6191 -0.0000 0.0000 -22.2266 8.0354 17.8205 2.4738 -7.1250 0.0000 -0.0000 -18.9588 47.0377 -0.9877 0.0000 0.0000 0.0000 70.5512 -25.0113 46.2338 -101.4682 59.4972 -69.9150 0.0000 -0.0000 -25.7560 -9.9090 12.5457 -2.1731 7.1250 -0.0000 -0.0000 12.0059 -17.4153 8.0416
-12.5904 17.5338 8.5455 -3.6254 -2.2281 3.7956 0.0000 0.0000 0.0000 -14.9645 -1.6169 -11.2993 2.4695 9.7823 28.2746 0.7479 -11.5578 -16.3077 0.0149 -0.7877 -2.1648 0.0000 0.0000 0.0000 25.8904 2.2091 -10.9254 -2.8137 -10.3873 30.2401 -1.3804 5.0309 -21.1311 -0.0001 -0.0546 0.1499 2.3017 0.6583 2.0996 3.0342 0.7903 4.4908 1.8447 0.4121 3.4353 -9.6505 0.6468 -8.1184 3.2845 2.2838 44.4506 3.6780 -0.2302 17.7286 0.0000 0.0000 0.0000 -77.9516 22.9465 49.7616 84.6262 -59.8906 -55.3479 -0.0000 0.0000 -22.3309 8.1235 17.2870 2.4288 -7.1250 0.0000 -0.0000 -18.6726 46.5421 -0.7358 0.0000 0.0000 0.0000 70.6054 -25.1896 46.1451 -101.8404 59.4636 -70.2356 0.0000 -0.0000 -25.1640 -10.1557 13.3024 -2.3602 7.1250 -0.0000 -0.0000 11.8095 -16.6512 8.1059
-12.5879 17.5338 8.5519 -3.0094 -2.1131 3.8547 0.0000 0.0000 0.0000 -15.6484 -1.6908 -11.3340 2.4210 9.6928 27.9875 0.6879 -11.9555 -15.8888 0.0012 0.2218 0.6095 0.0000 0.0000 0.0000 25.1280 1.7742 -11.2875 -2.8617 -10.4677 30.5051 -1.3977 5.4811 -21.2254 -0.0000 -0.0146 0.0402 1.6772 0.6137 2.0079 2.8750 0.7364 4.3967 2.0291 0.3677 3.3822 -9.5731 0.5788 -8.0016 3.1239 2.1974 44.1555 3.5583 -0.2585 17.5338 0.0000 0.0000 0.0000 -78.0825 22.9437 49.5996 84.1279 -59.8693 -54.9168 -0.0000 0.0000 -22.4707 8.2193 16.9332 2.4090 -7.1250 0.0000 -0.0000 -18.4529 46.2174 -0.5738 0.0000 0.0000 0.0000 70.5243 -24.9522 46.3743 -101.4771 59.4964 -69.9227 0.0000 -0.0000 -25.2416 -10.2563 13.1757 -2.3617 7.1250 -0.0000 -0.0000 11.7451 -16.7709 8.0284
-12.5892 17.5400 8.5553 -2.5174 -2.0564 3.9745 0.0000 0.0000 0.0000 -16.1904 -1.5370 -11.3920 2.3815 9.6191 27.7519 0.6641 -12.1372 -15.7320 0.0002 -0.0959 -0.2634 0.0000 0.0000 0.0000 24.5310 1.6704 -11.6099 -2.9087 -10.5457 30.7626 -1.4060 5.8643 -21.2613 -0.0047 -0.4433 1.2182 1.1400 0.5967 1.8653 2.7521 0.7150 4.3719 2.2047 0.3418 3.4312 -9.4734 0.4744 -8.2696 2.9331 2.1151 43.9416 3.4353 -0.2928 17.4914 0.0000 -0.0000 0.0000 -78.3001 22.8320 49.2732 83.5971 -59.8445 -54.4578 -0.0000 0.0000 -22.4444 8.3152 16.6775 2.4018 -7.1250 0.0000 -0.0000 -18.2722 45.9855 -0.4597 0.0000 -0.0000 0.0000 70.4984 -24.5251 46.4436 -100.6514 59.5669 -69.2109 0.0000 -0.0000 -24.9303 -10.6090 13.4830 -2.5006 7.1250 -0.0000 -0.0000 11.4948 -16.4445 7.9334
-12.5935 17.5386 8.5518 -2.6803 -2.1470 4.1602 0.0000 0.0000 0.0000 -15.9880 -1.2346 -11.5439 2.3516 9.5630 27.5730 0.6992 -11.9642 -15.9928 0.0611 -1.5955 -4.3890 0.0000 0.0000 0.0000 24.7245 1.9434 -11.8797 -2.9514 -10.6159 30.9952 -1.4110 5.9030 -21.2978 -0.0216 -0.9482 2.6062 1.2267 0.6450 1.8582 2.7823 0.7819 4.2511 2.1863 0.3779 3.3086 -9.3556 0.4024 -8.5303 2.8924 2.0188 43.8723 3.3829 -0.3176 17.5284 0.0000 0.0000 0.0000 -78.4501 22.9107 48.9120 83.1838 -59.8237 -54.1005 -0.0000 0.0000 -22.5269 8.0418 16.6414 2.3170 -7.1250 0.0000 -0.0000 -18.5039 45.9174 -0.4338 0.0000 0.0000 0.0000 70.6815 -24.4010 46.3159 -99.9371 59.6236 -68.5949 0.0000 -0.0000 -24.3062 -10.7075 13.3454 -2.4991 7.1250 -0.0000 -0.0000 11.4317 -16.5751 7.8549
-12.5976 17.5237 8.5513 -2.9808 -2.1326 4.2461 0.0000 0.0000 0.0000 -15.6382 -0.9547 -11.7907 2.3440 9.5486 27.5270 0.7513 -11.8268 -16.4133 0.2007 -2.8844 -7.9572 0.0000 0.0000 0.0000 25.0825 1.9695 -12.0507 -2.9783 -10.6598 31.1411 -1.4225 5.8738 -21.3896 -0.0257 -1.0342 2.8430 1.4509 0.6632 1.9022 2.8496 0.8101 4.1031 2.1273 0.3983 3.1320 -9.2168 0.3400 -8.4263 2.8749 1.8713 43.7190 3.3179 -0.3504 17.4231 0.0000 0.0000 0.0000 -78.5292 23.0394 48.6042 82.7733 -59.8017 -53.7456 -0.0000 0.0000 -22.8444 8.0722 16.8519 2.3544 -7.1250 0.0000 -0.0000 -18.5547 46.1215 -0.5318 0.0000 0.0000 0.0000 70.8116 -24.4204 46.4026 -99.2103 59.6770 -67.9677 0.0000 -0.0000 -24.2939 -11.2256 12.7638 -2.5107 7.1250 -0.0000 -0.0000 11.0941 -17.1232 7.4784
-12.5956 17.5132 8.5582 -2.8181 -1.8678 4.1609 0.0000 0.0000 0.0000 -15.8151 -0.6543 -11.9294 2.3597 9.5782 27.6212 0.7574 -12.2383 -16.5861 0.2524 -3.2329 -8.9278 0.0000 0.0000 0.0000 24.8447 1.3868 -12.1396 -2.9887 -10.6767 31.1971 -1.4329 6.3079 -21.4439 -0.0351 -1.2089 3.3237 1.3231 0.5777 1.9597 2.8243 0.7015 4.0177 2.1699 0.3410 3.0123 -9.2358 0.3099 -8.2024 2.8632 1.7950 43.3830 3.2854 -0.3696 17.1736 -0.0000 0.0000 0.0000 -78.8015 22.9752 48.1579 81.9614 -59.7544 -53.0441 -0.0000 0.0000 -23.0550 8.5034 16.9613 2.4974 -7.1250 0.0000 -0.0000 -18.2081 46.2799 -0.5946 -0.0000 0.0000 0.0000 70.7864 -24.5364 46.3737 -98.8629 59.7011 -67.6678 0.0000 -0.0000 -23.8116 -11.8858 12.8068 -2.6712 7.1250 -0.0000 -0.0000 10.6392 -17.0398 7.1802
